<svg width="1522" height="760" viewBox="0 0 1522 760" fill="none" xmlns="http://www.w3.org/2000/svg">
<mask id="mask0_262_511" style="mask-type:alpha" maskUnits="userSpaceOnUse" x="1" y="0" width="1519" height="759">
<rect x="1.5" y="0.5" width="1518" height="758" fill="#D9D9D9" stroke="black"/>
</mask>
<g mask="url(#mask0_262_511)">
<path d="M1056.31 639V625.676H1064.98V627.699H1058.73V631.316H1064.53V633.34H1058.73V636.977H1065.03V639H1056.31Z" fill="black" fill-opacity="0.36"/>
<path d="M1071.29 625.676L1074.23 630.555H1074.33L1077.28 625.676H1080.03L1075.92 632.338L1080.09 639H1077.3L1074.33 634.153H1074.23L1071.26 639H1068.47L1072.68 632.338L1068.53 625.676H1071.29Z" fill="black" fill-opacity="0.36"/>
<path d="M1086.17 625.676V639H1083.76V625.676H1086.17Z" fill="black" fill-opacity="0.36"/>
<path d="M1090.62 639V625.676H1095.72C1096.68 625.676 1097.48 625.827 1098.12 626.131C1098.76 626.43 1099.24 626.84 1099.56 627.361C1099.88 627.881 1100.04 628.471 1100.04 629.13C1100.04 629.672 1099.93 630.137 1099.72 630.523C1099.52 630.904 1099.24 631.214 1098.89 631.453C1098.53 631.691 1098.14 631.863 1097.71 631.967V632.097C1098.18 632.123 1098.63 632.268 1099.07 632.533C1099.51 632.793 1099.86 633.162 1100.14 633.639C1100.42 634.116 1100.56 634.693 1100.56 635.37C1100.56 636.059 1100.39 636.679 1100.06 637.23C1099.72 637.777 1099.22 638.208 1098.55 638.525C1097.87 638.842 1097.03 639 1096.01 639H1090.62ZM1093.03 636.983H1095.63C1096.5 636.983 1097.13 636.816 1097.52 636.482C1097.91 636.144 1098.1 635.71 1098.1 635.181C1098.1 634.786 1098.01 634.431 1097.81 634.114C1097.62 633.793 1097.34 633.541 1096.98 633.359C1096.62 633.173 1096.19 633.079 1095.69 633.079H1093.03V636.983ZM1093.03 631.342H1095.42C1095.83 631.342 1096.21 631.266 1096.54 631.115C1096.88 630.958 1097.14 630.739 1097.33 630.458C1097.53 630.171 1097.62 629.833 1097.62 629.443C1097.62 628.926 1097.44 628.501 1097.08 628.167C1096.72 627.833 1096.18 627.666 1095.47 627.666H1093.03V631.342Z" fill="black" fill-opacity="0.36"/>
<path d="M1106.9 625.676V639H1104.49V625.676H1106.9Z" fill="black" fill-opacity="0.36"/>
<path d="M1110.76 627.699V625.676H1121.39V627.699H1117.28V639H1114.88V627.699H1110.76Z" fill="black" fill-opacity="0.36"/>
<path d="M1127.69 625.676V639H1125.28V625.676H1127.69Z" fill="black" fill-opacity="0.36"/>
<path d="M1144.04 632.338C1144.04 633.773 1143.77 635.003 1143.23 636.027C1142.7 637.046 1141.97 637.827 1141.05 638.369C1140.13 638.911 1139.09 639.182 1137.92 639.182C1136.75 639.182 1135.71 638.911 1134.78 638.369C1133.86 637.822 1133.14 637.039 1132.6 636.02C1132.06 634.997 1131.8 633.769 1131.8 632.338C1131.8 630.902 1132.06 629.675 1132.6 628.655C1133.14 627.632 1133.86 626.849 1134.78 626.307C1135.71 625.764 1136.75 625.493 1137.92 625.493C1139.09 625.493 1140.13 625.764 1141.05 626.307C1141.97 626.849 1142.7 627.632 1143.23 628.655C1143.77 629.675 1144.04 630.902 1144.04 632.338ZM1141.61 632.338C1141.61 631.327 1141.46 630.475 1141.14 629.781C1140.83 629.083 1140.39 628.556 1139.84 628.2C1139.28 627.84 1138.64 627.66 1137.92 627.66C1137.19 627.66 1136.56 627.84 1136 628.2C1135.44 628.556 1135.01 629.083 1134.69 629.781C1134.38 630.475 1134.22 631.327 1134.22 632.338C1134.22 633.348 1134.38 634.203 1134.69 634.901C1135.01 635.595 1135.44 636.122 1136 636.482C1136.56 636.838 1137.19 637.016 1137.92 637.016C1138.64 637.016 1139.28 636.838 1139.84 636.482C1140.39 636.122 1140.83 635.595 1141.14 634.901C1141.46 634.203 1141.61 633.348 1141.61 632.338Z" fill="black" fill-opacity="0.36"/>
<path d="M1159.11 625.676V639H1156.96L1150.68 629.924H1150.57V639H1148.16V625.676H1150.32L1156.59 634.758H1156.7V625.676H1159.11Z" fill="black" fill-opacity="0.36"/>
<path d="M1045.99 667.091V686H1043.13V669.953H1043.02L1038.5 672.908V670.175L1043.21 667.091H1045.99Z" fill="black"/>
<path d="M1057.35 686.259C1056.19 686.259 1055.15 686.037 1054.23 685.594C1053.31 685.144 1052.58 684.529 1052.03 683.747C1051.48 682.965 1051.19 682.073 1051.15 681.07H1053.92C1053.99 681.882 1054.35 682.55 1055 683.073C1055.66 683.596 1056.44 683.858 1057.35 683.858C1058.08 683.858 1058.72 683.692 1059.28 683.359C1059.85 683.021 1060.29 682.556 1060.61 681.965C1060.94 681.374 1061.1 680.7 1061.1 679.943C1061.1 679.174 1060.93 678.487 1060.6 677.884C1060.27 677.281 1059.81 676.807 1059.22 676.462C1058.65 676.118 1057.98 675.942 1057.23 675.936C1056.66 675.936 1056.08 676.035 1055.5 676.232C1054.92 676.429 1054.46 676.687 1054.1 677.007L1051.49 676.619L1052.55 667.091H1062.94V669.538H1054.92L1054.32 674.828H1054.43C1054.8 674.471 1055.29 674.173 1055.9 673.933C1056.52 673.693 1057.17 673.572 1057.88 673.572C1059.03 673.572 1060.05 673.846 1060.95 674.394C1061.86 674.942 1062.57 675.69 1063.08 676.638C1063.61 677.58 1063.87 678.663 1063.86 679.888C1063.87 681.113 1063.59 682.205 1063.03 683.166C1062.47 684.126 1061.7 684.883 1060.72 685.437C1059.74 685.985 1058.62 686.259 1057.35 686.259Z" fill="black"/>
<path d="M1073.52 666.832C1074.36 666.839 1075.19 666.992 1076.01 667.294C1076.83 667.596 1077.57 668.088 1078.23 668.771C1078.89 669.455 1079.42 670.378 1079.82 671.541C1080.22 672.698 1080.42 674.139 1080.43 675.862C1080.43 677.518 1080.26 678.992 1079.93 680.285C1079.59 681.571 1079.12 682.658 1078.5 683.544C1077.88 684.43 1077.13 685.104 1076.25 685.566C1075.37 686.028 1074.38 686.259 1073.28 686.259C1072.15 686.259 1071.15 686.037 1070.28 685.594C1069.4 685.151 1068.69 684.538 1068.15 683.756C1067.6 682.969 1067.26 682.064 1067.12 681.042H1069.94C1070.12 681.854 1070.5 682.513 1071.06 683.018C1071.64 683.516 1072.37 683.766 1073.28 683.766C1074.66 683.766 1075.74 683.162 1076.52 681.956C1077.3 680.743 1077.69 679.051 1077.69 676.878H1077.54C1077.22 677.407 1076.82 677.863 1076.34 678.244C1075.87 678.626 1075.34 678.921 1074.75 679.131C1074.16 679.34 1073.53 679.445 1072.85 679.445C1071.76 679.445 1070.77 679.177 1069.88 678.641C1068.99 678.106 1068.28 677.37 1067.75 676.435C1067.22 675.499 1066.95 674.431 1066.95 673.231C1066.95 672.037 1067.23 670.953 1067.77 669.981C1068.31 669.008 1069.08 668.239 1070.06 667.673C1071.04 667.1 1072.2 666.82 1073.52 666.832ZM1073.53 669.233C1072.81 669.233 1072.16 669.411 1071.58 669.768C1071.01 670.119 1070.56 670.596 1070.22 671.2C1069.89 671.797 1069.72 672.461 1069.72 673.194C1069.72 673.926 1069.88 674.591 1070.2 675.188C1070.53 675.779 1070.97 676.25 1071.53 676.601C1072.1 676.946 1072.75 677.118 1073.47 677.118C1074.01 677.118 1074.52 677.013 1074.99 676.804C1075.45 676.595 1075.86 676.305 1076.22 675.936C1076.57 675.561 1076.84 675.136 1077.04 674.662C1077.23 674.188 1077.33 673.689 1077.33 673.166C1077.33 672.471 1077.17 671.824 1076.83 671.227C1076.51 670.63 1076.06 670.15 1075.49 669.787C1074.91 669.418 1074.26 669.233 1073.53 669.233Z" fill="black"/>
<path d="M1083.36 682.307V679.999L1091.53 667.091H1093.35V670.489H1092.2L1086.36 679.74V679.888H1097.55V682.307H1083.36ZM1092.33 686V681.605L1092.35 680.553V667.091H1095.05V686H1092.33Z" fill="black"/>
<path d="M1109.17 675.345V677.746H1100.78V675.345H1109.17Z" fill="black"/>
<path d="M1126.86 667.091V686H1124V669.953H1123.89L1119.37 672.908V670.175L1124.08 667.091H1126.86Z" fill="black"/>
<path d="M1132.61 686L1140.87 669.676V669.538H1131.32V667.091H1143.82V669.621L1135.6 686H1132.61Z" fill="black"/>
<path d="M1153.19 686.259C1151.92 686.259 1150.78 686.04 1149.79 685.603C1148.8 685.166 1148.01 684.56 1147.43 683.784C1146.86 683.002 1146.55 682.098 1146.51 681.07H1149.41C1149.45 681.63 1149.63 682.116 1149.97 682.528C1150.32 682.935 1150.77 683.249 1151.32 683.47C1151.87 683.692 1152.49 683.803 1153.17 683.803C1153.91 683.803 1154.57 683.673 1155.14 683.415C1155.72 683.156 1156.17 682.796 1156.5 682.335C1156.83 681.867 1156.99 681.328 1156.99 680.719C1156.99 680.085 1156.83 679.528 1156.5 679.048C1156.18 678.561 1155.71 678.18 1155.09 677.903C1154.47 677.626 1153.73 677.487 1152.85 677.487H1151.26V675.161H1152.85C1153.55 675.161 1154.17 675.034 1154.7 674.782C1155.24 674.53 1155.65 674.179 1155.96 673.729C1156.26 673.274 1156.41 672.742 1156.41 672.132C1156.41 671.547 1156.28 671.04 1156.01 670.609C1155.75 670.172 1155.38 669.83 1154.9 669.584C1154.43 669.338 1153.87 669.215 1153.22 669.215C1152.61 669.215 1152.03 669.328 1151.5 669.556C1150.97 669.778 1150.54 670.098 1150.2 670.516C1149.87 670.929 1149.69 671.424 1149.67 672.003H1146.91C1146.94 670.981 1147.24 670.082 1147.81 669.307C1148.39 668.531 1149.15 667.925 1150.1 667.488C1151.05 667.051 1152.1 666.832 1153.26 666.832C1154.47 666.832 1155.52 667.069 1156.4 667.543C1157.28 668.011 1157.97 668.636 1158.45 669.418C1158.93 670.199 1159.17 671.055 1159.17 671.984C1159.17 673.043 1158.88 673.942 1158.28 674.68C1157.69 675.419 1156.9 675.915 1155.92 676.167V676.315C1157.17 676.505 1158.15 677.004 1158.84 677.81C1159.53 678.617 1159.88 679.617 1159.87 680.811C1159.88 681.851 1159.59 682.784 1159 683.609C1158.42 684.434 1157.63 685.083 1156.63 685.557C1155.63 686.025 1154.48 686.259 1153.19 686.259Z" fill="black"/>
<path d="M1169.94 686.314C1168.48 686.308 1167.24 685.923 1166.2 685.16C1165.17 684.397 1164.38 683.286 1163.83 681.827C1163.28 680.368 1163.01 678.611 1163.01 676.555C1163.01 674.505 1163.28 672.754 1163.83 671.301C1164.39 669.849 1165.18 668.741 1166.21 667.977C1167.25 667.214 1168.5 666.832 1169.94 666.832C1171.39 666.832 1172.63 667.217 1173.66 667.987C1174.7 668.75 1175.49 669.858 1176.04 671.31C1176.59 672.757 1176.87 674.505 1176.87 676.555C1176.87 678.617 1176.59 680.377 1176.05 681.836C1175.5 683.289 1174.71 684.4 1173.67 685.169C1172.64 685.932 1171.4 686.314 1169.94 686.314ZM1169.94 683.849C1171.22 683.849 1172.22 683.224 1172.94 681.974C1173.67 680.725 1174.03 678.918 1174.03 676.555C1174.03 674.985 1173.87 673.659 1173.53 672.575C1173.21 671.486 1172.74 670.661 1172.12 670.101C1171.51 669.535 1170.79 669.251 1169.94 669.251C1168.67 669.251 1167.67 669.879 1166.94 671.135C1166.22 672.391 1165.85 674.197 1165.84 676.555C1165.84 678.13 1166.01 679.463 1166.33 680.553C1166.67 681.636 1167.14 682.458 1167.75 683.018C1168.36 683.572 1169.09 683.849 1169.94 683.849Z" fill="black"/>
<path d="M1258.6 470.513V583.233H1284.26C1322.92 583.233 1348.26 560.494 1348.26 526.061C1348.26 492.277 1328.76 470.513 1298.55 470.513H1258.6ZM1209.22 691.406H1214.42C1225.14 691.406 1232.29 684.259 1232.29 673.54V488.379C1232.29 477.659 1225.14 470.513 1214.42 470.513H1209.22V467.264H1298.55C1344.68 467.264 1374.57 490.653 1374.57 525.086C1374.57 555.297 1351.18 577.061 1313.17 583.883L1376.52 676.138C1382.36 685.234 1393.41 691.081 1404.13 691.081H1409V694.654H1328.76V691.406H1335.91C1346.63 691.406 1349.88 685.559 1344.03 676.463L1282.64 586.482H1258.6V673.54C1258.6 684.259 1265.75 691.406 1276.14 691.406H1281.66V694.654H1209.22V691.406Z" fill="black"/>
<path d="M46.1948 486.495V589.953H69.7487C105.229 589.953 128.484 569.082 128.484 537.478C128.484 506.471 110.595 486.495 82.8674 486.495H46.1948ZM0.875977 689.237H5.64638C15.4853 689.237 22.0447 682.678 22.0447 672.839V502.893C22.0447 493.054 15.4853 486.495 5.64638 486.495H0.875977V483.513H82.8674C125.205 483.513 152.635 504.98 152.635 536.584C152.635 564.312 131.168 584.288 96.2841 590.549L154.423 675.224C159.79 683.572 169.927 688.939 179.766 688.939H184.239V692.219H110.595V689.237H117.155C126.994 689.237 129.975 683.87 124.608 675.522L68.258 592.934H46.1948V672.839C46.1948 682.678 52.7542 689.237 62.295 689.237H67.3635V692.219H0.875977V689.237Z" fill="black"/>
<path d="M286.56 657.931V619.172C286.56 616.19 286.262 612.91 286.262 609.631C249.888 613.209 212.321 626.625 212.321 660.018C212.321 674.329 219.178 692.219 240.943 692.219C260.025 692.219 278.212 678.802 286.56 657.931ZM208.146 610.227L195.326 582.201C206.954 562.523 229.613 552.088 252.571 552.088C291.032 552.088 310.71 581.008 310.71 623.346V683.572C310.71 686.852 317.27 689.237 326.81 689.237H328.599V692.219H286.56V663.298C276.423 682.976 261.217 695.2 237.067 695.2C215.302 695.2 188.17 685.361 188.17 657.931C188.17 622.451 230.508 612.314 286.262 606.649C285.069 582.499 278.808 555.069 252.869 555.069C229.911 555.069 220.669 577.132 208.146 610.227Z" fill="black"/>
<path d="M369.863 614.401V617.383C369.863 652.266 391.628 689.237 419.952 689.237C442.91 689.237 457.817 663.596 457.817 625.731C457.817 584.884 440.226 558.051 411.604 558.051C389.839 558.051 369.863 572.958 369.863 614.401ZM385.963 755.725H387.752V759.004H327.525V755.725H329.314C338.855 755.725 345.713 749.165 345.713 739.624V575.045C345.713 564.908 338.855 558.349 329.314 558.349H327.525V555.367H369.863V588.462C376.72 562.523 395.206 552.088 418.461 552.088C457.221 552.088 481.967 581.008 481.967 623.644C481.967 666.578 457.221 695.2 425.915 695.2C397.293 695.2 377.018 671.05 369.863 641.831V739.624C369.863 749.165 376.422 755.725 385.963 755.725Z" fill="black"/>
<path d="M507.315 502.893C507.315 491.563 499.563 486.495 489.128 486.495V483.513H531.465V617.681C546.372 581.008 561.876 551.79 594.375 551.79C620.314 551.79 631.643 570.275 631.643 600.686V681.187C631.643 688.641 645.06 689.237 649.831 689.237V692.219H589.604V689.237C594.375 689.237 607.493 688.641 607.493 681.187V602.177C607.493 575.045 599.145 557.156 583.939 557.156C560.684 557.156 542.198 597.407 531.465 625.433V677.907C531.465 685.659 538.919 689.237 549.354 689.237V692.219H489.128V689.237C499.563 689.237 507.315 684.168 507.315 672.839V502.893Z" fill="black"/>
<path d="M757.661 657.931V619.172C757.661 616.19 757.363 612.91 757.363 609.631C720.988 613.209 683.422 626.625 683.422 660.018C683.422 674.329 690.279 692.219 712.044 692.219C731.126 692.219 749.313 678.802 757.661 657.931ZM679.247 610.227L666.427 582.201C678.055 562.523 700.714 552.088 723.672 552.088C762.133 552.088 781.811 581.008 781.811 623.346V683.572C781.811 686.852 788.37 689.237 797.911 689.237H799.7V692.219H757.661V663.298C747.524 682.976 732.318 695.2 708.168 695.2C686.403 695.2 659.271 685.361 659.271 657.931C659.271 622.451 701.609 612.314 757.363 606.649C756.17 582.499 749.909 555.069 723.97 555.069C701.012 555.069 691.77 577.132 679.247 610.227Z" fill="black"/>
<path d="M948.816 486.495H947.027V483.513H989.365V672.839C989.365 682.678 995.924 689.237 1005.46 689.237H1007.25V692.219H947.027V689.237H948.816C958.357 689.237 965.215 682.678 965.215 672.839V502.893C965.215 493.054 958.357 486.495 948.816 486.495Z" fill="black"/>
<path d="M851.756 663.344L904.691 591.056C889.509 574.014 869.063 551.052 845.816 560.369C819.248 571.017 823.372 610.158 832.912 633.958C837.127 644.475 843.501 654.768 851.756 663.344ZM853.861 665.391C867.379 678.282 886.319 685.466 908.183 676.703C926.448 669.383 937.013 654.87 943.421 633.992L946.188 632.883C942.33 658.52 929.222 677.907 904.038 688.001C867.784 702.532 828.963 688.219 812.214 646.43C796.796 607.962 810.667 571.245 845.537 557.269C870.445 547.286 900.123 550.809 918.021 572.222L919.96 574.657L853.861 665.391Z" fill="black"/>
<path d="M1425.44 663.344L1478.37 591.056C1463.19 574.014 1442.75 551.052 1419.5 560.369C1392.93 571.017 1397.06 610.158 1406.6 633.958C1410.81 644.475 1417.18 654.768 1425.44 663.344ZM1427.55 665.391C1441.06 678.282 1460 685.466 1481.87 676.703C1500.13 669.383 1510.7 654.87 1517.1 633.992L1519.87 632.883C1516.01 658.52 1502.91 677.907 1477.72 688.001C1441.47 702.532 1402.65 688.219 1385.9 646.43C1370.48 607.962 1384.35 571.245 1419.22 557.269C1444.13 547.286 1473.81 550.809 1491.7 572.222L1493.64 574.657L1427.55 665.391Z" fill="black"/>
<path d="M1159.44 391.344L1212.37 319.056C1197.19 302.014 1176.75 279.051 1153.5 288.369C1126.93 299.017 1131.06 338.158 1140.6 361.958C1144.81 372.474 1151.18 382.768 1159.44 391.344ZM1161.55 393.391C1175.06 406.282 1194 413.466 1215.87 404.703C1234.13 397.382 1244.7 382.869 1251.1 361.992L1253.87 360.883C1250.01 386.52 1236.91 405.907 1211.72 416C1175.47 430.531 1136.65 416.219 1119.9 374.429C1104.48 335.961 1118.35 299.245 1153.22 285.268C1178.13 275.285 1207.81 278.808 1225.7 300.222L1227.64 302.657L1161.55 393.391Z" fill="black"/>
<path d="M573.44 391.344L626.374 319.056C611.192 302.014 590.747 279.051 567.5 288.369C540.932 299.017 545.056 338.158 554.595 361.958C558.81 372.474 565.184 382.768 573.44 391.344ZM575.545 393.391C589.063 406.282 608.003 413.466 629.866 404.703C648.132 397.382 658.696 382.869 665.104 361.992L667.872 360.883C664.014 386.52 650.906 405.907 625.722 416C589.467 430.531 550.647 416.219 533.897 374.429C518.479 335.961 532.35 299.245 567.221 285.268C592.128 275.285 621.806 278.808 639.704 300.222L641.644 302.657L575.545 393.391Z" fill="black"/>
<path d="M45.4013 419.406H50.5988V422.654H1.22266V419.406H6.42015C17.14 419.406 24.2865 412.259 24.2865 401.54V216.379C24.2865 205.659 17.14 198.513 6.42015 198.513H1.22266V195.264H52.5479L178.587 377.826V216.379C178.587 205.659 171.44 198.513 161.045 198.513H155.523V195.264H204.899V198.513H199.702C189.307 198.513 181.835 205.659 181.835 216.379V422.654H178.587L27.5349 205.334V401.54C27.5349 412.259 34.6815 419.406 45.4013 419.406Z" fill="black"/>
<path d="M243.458 385.295C276.017 416.109 311.343 422.259 334.119 398.194C356.894 374.129 349.255 338.722 316.697 307.908C284.374 277.318 248.364 271.416 225.589 295.481C203.037 319.31 210.899 354.481 243.458 385.295ZM225.135 404.182C191.633 372.475 189.736 328.638 223.453 293.012C256.946 257.622 301.28 257.091 334.783 288.798C368.522 320.728 370.195 364.801 336.701 400.191C302.985 435.817 259.11 436.336 225.135 404.182Z" fill="black"/>
<path d="M690.714 294.341C690.714 281.997 682.268 276.475 670.898 276.475V273.227H717.026V341.444C730.67 301.488 745.288 269.653 774.199 269.653C797.262 269.653 809.931 289.793 809.931 322.927V341.768C823.575 301.488 838.193 269.653 867.428 269.653C890.492 269.653 902.836 289.793 902.836 322.927V410.635C902.836 418.756 917.454 419.406 922.652 419.406V422.654H856.709V419.406C862.231 419.406 876.524 418.756 876.524 410.96V326.826C876.524 297.915 867.428 278.749 854.76 278.749C835.919 278.749 818.702 321.953 809.931 352.163V410.635C809.931 418.756 824.224 419.406 829.747 419.406V422.654H763.804V419.406C769.001 419.406 783.619 418.756 783.619 410.96V326.826C783.619 297.915 774.523 278.749 761.854 278.749C743.014 278.749 726.122 321.628 717.026 351.839V407.387C717.026 415.508 725.147 419.406 736.517 419.406V422.654H670.898V419.406C682.268 419.406 690.714 416.157 690.714 408.686V294.341Z" fill="black"/>
<path d="M964.592 357.686V360.934C964.592 398.941 988.306 419.406 1013.97 419.406C1044.18 419.406 1060.42 391.469 1060.42 350.214C1060.42 305.711 1041.26 276.475 1015.27 276.475C986.357 276.475 964.592 312.533 964.592 357.686ZM920.413 198.513H918.464V195.264H964.592V327.475C972.388 293.692 993.503 269.978 1024.36 269.978C1059.77 269.978 1086.73 301.488 1086.73 347.94C1086.73 394.718 1059.77 425.903 1020.14 425.903C993.503 425.903 972.388 412.259 964.592 385.622V409.661L938.28 422.654V216.379C938.28 205.659 930.808 198.513 920.413 198.513Z" fill="black"/>
<path d="M1327.87 419.406H1328.52V422.654H1262.9V419.406H1264.85C1275.24 419.406 1282.71 412.259 1282.71 401.539V294.341C1282.71 283.621 1275.24 276.475 1264.85 276.475H1262.9V273.226H1309.03V335.921C1314.22 308.31 1322.99 269.978 1352.56 269.978C1366.2 269.978 1381.79 278.099 1389.59 296.615L1369.45 320.978C1366.52 292.392 1356.78 276.475 1345.41 276.475C1326.89 276.475 1309.03 319.029 1309.03 373.603V401.864C1309.03 412.909 1317.15 419.406 1327.87 419.406Z" fill="black"/>
<path d="M425.917 276.475H423.968C413.573 276.475 409.35 282.972 413.898 292.392L460.351 391.794L503.23 292.392C507.453 282.647 502.905 276.475 492.51 276.475H490.561V273.227H533.44V276.475H531.491C521.096 276.475 511.026 282.647 506.803 292.392L450.28 422.654H445.408L384.987 292.392C380.439 282.972 370.044 276.475 359.649 276.475H357.7V273.227H425.917V276.475Z" fill="black"/>
<path fill-rule="evenodd" clip-rule="evenodd" d="M857 1.00011L576 394L575.187 393.418L856.187 0.418477L857 1.00011Z" fill="#6C1A1A"/>
<path fill-rule="evenodd" clip-rule="evenodd" d="M1521.55 535.899L1418 677L1417.19 676.408L1520.74 535.308L1521.55 535.899Z" fill="black"/>
</g>
</svg>
