<svg width="53" height="33" viewBox="0 0 53 33" fill="none" xmlns="http://www.w3.org/2000/svg">
<path d="M41.0957 0.640944L41.0957 0.0270381L31.0547 0.0270376L31.0547 12.1004C31.0547 13.2259 29.5019 13.6351 28.9844 12.612L27.8457 10.2587C26.293 7.08689 25.4648 3.91508 25.4648 0.640944L25.4648 0.0270374L15.4238 0.0270369L15.4238 11.7935C15.4238 12.9189 13.8711 13.3282 13.3535 12.305L12.2148 9.84944C10.7656 6.88226 10.041 3.71044 10.041 0.640943L10.041 0.0270367L-4.29151e-07 0.0270363L-9.43477e-07 11.7935L1.65625 13.1236C8.38477 18.8533 11.9043 25.5039 11.9043 32.4614L11.9043 32.973L21.9453 32.973L21.9453 21.2066C21.9453 20.0811 23.4981 19.6718 24.0156 20.695L25.1543 23.1506C26.6035 26.1178 27.3281 29.2896 27.3281 32.3591L27.3281 32.8707L37.3691 32.8707L37.3691 20.8996C37.3691 19.7741 38.9219 19.3649 39.4394 20.388L40.5781 22.7413C42.1309 25.9131 42.959 29.085 42.959 32.3591L42.959 32.8707L53 32.8707L53 21.1043L51.3437 19.7741C44.6152 14.249 41.0957 7.49616 41.0957 0.640944Z" fill="#000000"/>
</svg>
