<svg width="1512" height="936" viewBox="0 0 1512 936" fill="none" xmlns="http://www.w3.org/2000/svg">
<path d="M1175.49 11.5427L1175.49 -5.99995L888.281 -5.99997L888.281 339.001C888.281 371.162 843.867 382.857 829.062 353.619L796.492 286.374C752.078 195.738 728.391 105.102 728.391 11.5426L728.391 -5.99997L441.18 -5.99999L441.18 330.23C441.18 362.391 396.766 374.086 381.961 344.849L349.391 274.679C307.938 189.891 287.211 99.2547 287.211 11.5426L287.211 -5.99999L0 -6.00001L-1.46971e-05 330.23L47.3752 368.238C239.836 531.967 340.508 722.01 340.508 920.824L340.508 935.443L627.719 935.443L627.719 599.213C627.719 567.052 672.133 555.357 686.938 584.595L719.508 654.765C760.961 739.553 781.688 830.189 781.688 917.901L781.688 935.443L1068.9 935.443L1068.9 590.442C1068.9 558.281 1113.31 546.586 1128.12 575.824L1160.69 643.069C1205.1 733.705 1228.79 824.342 1228.79 917.901L1228.79 934.943L1516 934.943L1516 596.29L1468.62 558.281C1276.16 400.399 1175.49 207.433 1175.49 11.5427Z" fill="#6C1A1A" fill-opacity="0.1"/>
</svg>
