<svg width="1516" height="942" viewBox="0 0 1516 942" fill="none" xmlns="http://www.w3.org/2000/svg">
<path d="M340.508 17.5426L340.508 -1.48841e-05L627.719 -2.74385e-05L627.719 345.001C627.719 377.162 672.133 388.857 686.938 359.619L719.508 292.374C763.922 201.738 787.609 111.102 787.609 17.5426L787.609 -3.44275e-05L1074.82 -4.69819e-05L1074.82 336.23C1074.82 368.391 1119.23 380.086 1134.04 350.848L1166.61 280.679C1208.06 195.891 1228.79 105.255 1228.79 17.5426L1228.79 -5.37121e-05L1516 -6.62665e-05L1516 336.23L1468.62 374.238C1276.16 537.967 1175.49 728.01 1175.49 926.824L1175.49 941.443L888.281 941.443L888.281 605.213C888.281 573.052 843.867 561.357 829.062 590.595L796.492 660.765C755.039 745.553 734.312 836.189 734.312 923.901L734.312 941.443L447.102 941.443L447.102 596.442C447.102 564.281 402.688 552.586 387.883 581.824L355.312 649.069C310.898 739.705 287.211 830.342 287.211 923.901L287.211 940.943L4.1024e-05 940.943L2.63269e-05 602.29L47.3752 564.281C239.836 406.399 340.508 213.433 340.508 17.5426Z" fill="#DF8F8F" fill-opacity="0.09"/>
</svg>
